<?xml version="1.0" encoding="UTF-8"?>
<!DOCTYPE svg PUBLIC "-//W3C//DTD SVG 1.1//EN" "http://www.w3.org/Graphics/SVG/1.1/DTD/svg11.dtd">
<!-- Creator: CorelDRAW 2018 (64-Bit Evaluation Version) -->
<svg xmlns="http://www.w3.org/2000/svg" xml:space="preserve" width="2315px" height="704px" version="1.1" style="shape-rendering:geometricPrecision; text-rendering:geometricPrecision; image-rendering:optimizeQuality; fill-rule:evenodd; clip-rule:evenodd"
viewBox="0 0 715.82 217.62"
 xmlns:xlink="http://www.w3.org/1999/xlink">
 <defs>
  <style type="text/css">
   <![CDATA[
    .fil0 {fill:black}
   ]]>
  </style>
 </defs>
 <g id="Layer_x0020_1">
  <metadata id="CorelCorpID_0Corel-Layer"/>
  <g id="_1881097997520">
   <g>
    <g>
     <path class="fil0" d="M35.26 151.24c0.72,1.63 1.9,2.89 3.61,3.79 1.71,0.9 4.24,1.72 7.49,2.44l0 0.09 -46.36 0 0 -0.09c3.43,-0.81 5.95,-1.63 7.76,-2.62 1.8,-0.9 3.06,-2.25 3.69,-4.06 0.73,-1.8 1,-4.24 1,-7.3l0 -127.98c0,-3.15 -0.36,-5.59 -1,-7.39 -0.72,-1.72 -1.89,-3.07 -3.69,-4.06 -1.81,-0.99 -4.42,-1.81 -7.76,-2.53l0 -0.09 46.36 0 0 0.09c-3.25,0.72 -5.78,1.54 -7.49,2.44 -1.71,0.9 -2.98,2.16 -3.61,3.79 -0.72,1.62 -0.99,3.87 -0.99,6.85l0 129.69c-0.09,3.07 0.27,5.32 0.99,6.94zm-1.35 -75.3l0 -0.09 13.08 -0.45 0 0.9 -13.08 -0.36zm12.72 -0.18l40.31 -46.63c5.59,-6.4 9.47,-11.54 11.73,-15.33 2.25,-3.79 2.88,-6.68 1.89,-8.57 -0.99,-1.89 -3.7,-3.16 -8.03,-3.61l0 -0.18 34.45 0 0 0.09c-3.51,0.9 -7.12,2.53 -10.73,4.78 -3.61,2.26 -7.66,5.32 -12.08,9.11 -4.42,3.88 -9.47,8.75 -15.34,14.61 -4.68,4.78 -9.56,9.83 -14.61,15.24 -5.05,5.42 -9.56,10.2 -13.61,14.34l43.11 68c4.51,7.04 8.2,12.54 11.27,16.51 3.07,4.06 5.77,7.03 8.12,8.93 2.34,1.98 4.78,3.33 7.21,4.24l0 0.09 -32.56 0 -51.13 -81.62z"/>
     <path class="fil0" d="M258.21 147.46c1.71,3.15 3.6,5.41 5.77,6.94 2.07,1.44 4.6,2.53 7.57,3.07l0 0.09 -50.5 0 0 -0.09c3.79,-0.45 6.58,-1.54 8.39,-3.16 1.89,-1.71 2.88,-4.15 2.88,-7.4 0.09,-3.24 -0.81,-7.3 -2.61,-12.35l-37.43 -106.69 -33.19 98.12c-2.62,7.67 -4.15,13.62 -4.69,17.95 -0.54,4.33 0.18,7.48 2.16,9.47 1.99,1.98 5.33,3.34 10.02,4.06l0 0.09 -33.1 0 0 -0.09c3.06,-0.54 5.77,-1.81 8.02,-3.61 2.26,-1.8 4.51,-4.87 6.68,-9.29 2.25,-4.42 4.87,-10.73 7.93,-19.12l45.55 -124.01 3.7 0 47.34 133.12c1.9,5.5 3.79,9.74 5.51,12.9zm-91.18 -48.71l61.05 0 0.09 1.27 -61.59 0 0.45 -1.27z"/>
     <path class="fil0" d="M319.08 156.02c-7.57,-2.07 -13.62,-4.42 -18.12,-7.12l-1.72 -35.9 0.09 0c1.72,7.85 4.15,14.61 7.22,20.39 3.06,5.77 6.76,10.46 10.91,14.25 4.15,3.78 8.84,6.58 13.98,8.38 5.14,1.81 10.55,2.8 16.32,2.8 9.47,0 17.41,-2.89 23.81,-8.75 6.4,-5.86 9.65,-13.98 9.65,-24.44 0,-8.39 -2.61,-15.33 -7.84,-20.83 -5.24,-5.59 -13.26,-10.55 -24.18,-14.88l-12.44 -4.96c-11.63,-4.69 -20.65,-10.74 -26.88,-18.22 -6.22,-7.49 -9.38,-16.42 -9.38,-26.88 0,-9.38 2.44,-16.95 7.22,-22.81 4.78,-5.87 10.91,-10.11 18.4,-12.9 7.48,-2.71 15.24,-4.15 23.26,-4.15 10.2,0 18.4,0.9 24.63,2.62 6.31,1.71 10.82,3.6 13.61,5.5l1.54 32.46 -0.09 0c-2.35,-8.47 -5.23,-15.6 -8.84,-21.64 -3.61,-5.95 -7.94,-10.55 -12.99,-13.8 -5.05,-3.25 -11,-4.78 -17.76,-4.78 -10.47,0 -18.4,2.62 -23.72,7.94 -5.41,5.32 -8.03,12.08 -8.03,20.47 0,8.66 2.89,15.69 8.57,21.1 5.77,5.41 13.53,10.19 23.27,14.25l11.99 4.96c11.63,4.87 20.74,11.01 27.15,18.58 6.4,7.58 9.65,16.51 9.65,26.97 0,9.11 -2.44,16.95 -7.22,23.63 -4.78,6.67 -11,11.81 -18.67,15.42 -7.66,3.61 -15.87,5.5 -24.62,5.5 -11.63,-0.09 -21.19,-1.08 -28.77,-3.16z"/>
     <path class="fil0" d="M469.24 151.24c0.73,1.63 1.9,2.89 3.61,3.79 1.72,0.9 4.24,1.72 7.49,2.44l0 0.09 -46.27 0 0 -0.09c3.43,-0.81 5.95,-1.63 7.76,-2.62 1.8,-0.9 3.06,-2.25 3.7,-4.06 0.72,-1.8 0.99,-4.24 0.99,-7.3l0 -127.98c0,-3.15 -0.36,-5.59 -0.99,-7.39 -0.73,-1.72 -1.9,-3.07 -3.7,-4.06 -1.81,-0.99 -4.42,-1.81 -7.76,-2.53l0 -0.09 46.27 0 0 0.09c-3.25,0.72 -5.77,1.54 -7.49,2.44 -1.71,0.9 -2.97,2.16 -3.61,3.79 -0.72,1.62 -0.99,3.87 -0.99,6.85l0 129.69c-0.09,3.07 0.27,5.32 0.99,6.94zm-1.35 -75.3l0 -0.09 13.08 -0.45 0 0.9 -13.08 -0.36zm12.72 -0.18l40.31 -46.63c5.59,-6.4 9.47,-11.54 11.73,-15.33 2.25,-3.79 2.88,-6.68 1.89,-8.57 -0.99,-1.89 -3.7,-3.16 -8.03,-3.61l0 -0.18 34.45 0 0 0.09c-3.51,0.9 -7.12,2.53 -10.73,4.78 -3.6,2.26 -7.66,5.32 -12.08,9.11 -4.42,3.88 -9.47,8.75 -15.33,14.61 -4.69,4.78 -9.56,9.83 -14.61,15.24 -5.05,5.42 -9.56,10.2 -13.62,14.34l43.11 68c4.51,7.04 8.2,12.54 11.27,16.51 3.07,4.06 5.77,7.03 8.12,8.93 2.34,1.98 4.78,3.33 7.21,4.24l0 0.09 -32.65 0 -51.04 -81.62z"/>
     <path class="fil0" d="M594.06 10.46c-2.52,-3.25 -4.87,-5.5 -6.85,-6.67 -1.98,-1.17 -4.15,-1.9 -6.58,-2.26l0 -0.09 50.5 0 0 0.09c-5.05,0.9 -8.21,3.07 -9.38,6.41 -1.26,3.33 0.54,9.11 5.41,17.31l31.93 54.75 25.79 -46.9c4.33,-7.85 7.13,-13.89 8.39,-18.22 1.26,-4.33 0.99,-7.39 -0.72,-9.38 -1.71,-1.98 -4.87,-3.25 -9.38,-3.88l0 -0.18 32.65 0 0 0.09c-2.8,0.54 -5.41,1.81 -7.85,3.61 -2.43,1.8 -5.14,4.87 -8.3,9.29 -3.06,4.42 -7.21,10.73 -12.17,19.12l-28.41 47.17 0 61.05c0,3.43 0.27,6.23 0.9,8.3 0.63,2.08 1.89,3.61 3.88,4.78 1.98,1.08 4.87,1.99 8.66,2.62l0 0.09 -48.43 0 0 -0.09c3.87,-0.63 6.76,-1.54 8.65,-2.62 1.9,-1.08 3.16,-2.7 3.79,-4.78 0.63,-2.07 0.9,-4.78 0.9,-8.3l0 -59.52 -33.55 -56.55c-3.96,-6.85 -7.3,-11.9 -9.83,-15.24z"/>
    </g>
    <g>
     <path class="fil0" d="M19.48 209.69c0,2.16 0.45,3.69 1.35,4.78 0.9,0.99 2.26,1.53 3.97,1.53 1.17,0 2.26,-0.27 3.16,-0.81 0.9,-0.54 1.62,-1.27 2.25,-2.26l0 -15.96c0,-0.63 -0.09,-1.08 -0.18,-1.26 -0.18,-0.18 -0.54,-0.45 -1.17,-0.73l-1.08 -0.45 0 0 6.94 -0.72 0 20.47c0,0.64 0.09,1 0.18,1.27 0.18,0.18 0.54,0.45 1.17,0.72l1.09 0.45 0 0 -6.95 0.72 0 -4.42c-0.63,1.45 -1.71,2.53 -3.06,3.34 -1.36,0.81 -2.89,1.26 -4.6,1.26 -2.17,0 -4.06,-0.54 -5.5,-1.62 -1.45,-1.08 -2.17,-2.89 -2.17,-5.41l0 -13.62c0,-0.63 -0.09,-1.08 -0.18,-1.26 -0.18,-0.18 -0.54,-0.45 -1.17,-0.73l-1.08 -0.45 0 0 6.94 -0.72 0 15.88 0.09 0z"/>
     <path class="fil0" d="M96.5 199.04c1.35,-1.71 2.53,-3.06 3.52,-3.88 0.99,-0.9 1.89,-1.35 2.79,-1.35 0.73,0 1.27,0.18 1.63,0.54 0.36,0.36 0.54,0.91 0.54,1.45 0,0.36 -0.09,0.63 -0.18,0.9 -0.09,0.27 -0.27,0.54 -0.36,0.63 -0.18,-0.09 -0.54,-0.09 -0.9,-0.18 -0.46,-0.09 -0.91,-0.09 -1.36,-0.09 -1.08,0 -2.16,0.18 -3.15,0.45 -1.09,0.45 -1.9,0.9 -2.53,1.53l0 15.34c0,0.63 0.09,1.17 0.18,1.53 0.09,0.36 0.36,0.63 0.72,0.81 0.36,0.18 0.99,0.36 1.72,0.54l0 0 -9.65 0 0 0c1.08,-0.18 1.8,-0.45 2.07,-0.81 0.27,-0.36 0.45,-0.9 0.45,-1.8l0 -17.68c0,-0.63 -0.09,-1.08 -0.18,-1.26 -0.18,-0.18 -0.54,-0.45 -1.17,-0.73l-1.08 -0.45 0 0 6.94 -0.72 0 5.23z"/>
     <path class="fil0" d="M179.92 211.85c-0.99,1.8 -2.43,3.25 -4.15,4.24 -1.71,0.99 -3.6,1.53 -5.68,1.53 -1.53,0 -2.88,-0.36 -3.87,-0.99 -1,-0.63 -1.72,-1.44 -2.17,-2.53l-2.89 3.16 -1.62 0 0 -33.28c0,-0.63 -0.09,-1.08 -0.18,-1.26 -0.18,-0.18 -0.54,-0.45 -1.17,-0.72l-1.08 -0.45 0 0 6.94 -0.73 0 17.59c0.63,-1.44 1.71,-2.52 3.07,-3.43 1.35,-0.81 2.88,-1.26 4.51,-1.26 1.71,0 3.24,0.45 4.78,1.35 1.53,0.91 2.7,2.26 3.6,3.97 0.91,1.72 1.36,3.88 1.36,6.5 0.09,2.43 -0.45,4.51 -1.45,6.31zm-4.15 -11.36c-0.63,-1.63 -1.53,-2.89 -2.61,-3.79 -1.08,-0.9 -2.26,-1.35 -3.61,-1.35 -1.35,0 -2.43,0.27 -3.33,0.81 -0.91,0.54 -1.63,1.26 -2.26,2.25l0 15.69c0.36,0.91 1.08,1.72 1.98,2.26 1,0.54 1.99,0.9 2.98,0.9 1.62,0 2.98,-0.45 4.15,-1.44 1.17,-0.99 2.07,-2.26 2.7,-3.88 0.64,-1.62 0.91,-3.52 0.91,-5.68 0.09,-2.26 -0.27,-4.15 -0.91,-5.77z"/>
     <path class="fil0" d="M237.73 216.09c-1.26,-0.99 -1.89,-2.35 -1.89,-4.15 0,-1.08 0.27,-2.07 0.9,-2.98 0.63,-0.9 1.62,-1.62 2.98,-2.25 1.35,-0.63 3.15,-1.17 5.41,-1.71l5.32 -1.18 0 0.09 -2.71 0.63c-1.89,0.46 -3.42,0.91 -4.41,1.54 -1.09,0.63 -1.81,1.35 -2.17,2.16 -0.36,0.81 -0.63,1.81 -0.63,2.89 0,1.62 0.45,2.79 1.35,3.7 0.9,0.9 1.99,1.26 3.25,1.26 0.99,0 1.89,-0.18 2.61,-0.54 0.73,-0.36 1.36,-0.9 1.81,-1.72l0 -12.89c0,-2.44 -0.54,-4.24 -1.72,-5.23 -1.08,-1.09 -2.61,-1.63 -4.51,-1.63 -1.17,0 -2.25,0.18 -3.24,0.63 -0.99,0.37 -1.81,0.91 -2.44,1.63 -0.63,0.72 -0.9,1.44 -0.9,2.34 0,-0.72 0.27,-1.26 0.72,-1.71 0.45,-0.45 0.9,-0.63 1.45,-0.63 0.63,0 1.17,0.18 1.62,0.63 0.45,0.45 0.72,0.99 0.72,1.71 0,0.63 -0.18,1.18 -0.63,1.63 -0.45,0.45 -0.99,0.63 -1.62,0.63 -0.64,0 -1.09,-0.18 -1.54,-0.63 -0.45,-0.45 -0.63,-1 -0.63,-1.63 0,-0.9 0.36,-1.71 1.08,-2.52 0.73,-0.72 1.72,-1.36 2.98,-1.81 1.26,-0.45 2.71,-0.72 4.42,-0.72 2.52,0 4.69,0.54 6.31,1.63 1.63,1.08 2.53,2.88 2.53,5.41l0 12.8c0,1.09 0.27,1.9 0.72,2.44 0.45,0.54 1.08,0.81 1.89,0.81 0.27,0 0.54,0 0.81,-0.09l0 0c-0.36,0.27 -0.81,0.45 -1.44,0.63 -0.63,0.18 -1.26,0.27 -1.98,0.27 -0.81,0 -1.45,-0.18 -2.08,-0.45 -0.63,-0.27 -1.08,-0.63 -1.53,-1.17 -0.36,-0.54 -0.63,-1.17 -0.81,-1.9 -0.27,0.73 -0.81,1.36 -1.44,1.9 -0.73,0.54 -1.54,0.99 -2.44,1.26 -0.99,0.27 -1.98,0.45 -3.16,0.45 -2.16,0 -3.78,-0.54 -4.96,-1.53z"/>
     <path class="fil0" d="M315.48 198.32c0.63,-1.44 1.71,-2.52 3.06,-3.34 1.35,-0.81 2.89,-1.26 4.6,-1.26 2.17,0 4.06,0.54 5.5,1.63 1.45,1.08 2.17,2.88 2.17,5.41l0 13.71c0,0.9 0.18,1.62 0.45,1.89 0.27,0.36 0.99,0.63 2.07,0.9l0 0 -9.38 0 0 0c1.08,-0.18 1.72,-0.45 1.99,-0.81 0.27,-0.36 0.36,-0.9 0.36,-1.8l0 -13.08c0,-2.17 -0.45,-3.79 -1.36,-4.78 -0.9,-0.99 -2.25,-1.53 -4.05,-1.53 -1.18,0 -2.26,0.27 -3.25,0.81 -0.81,0.54 -1.62,1.26 -2.16,2.25l0 16.24c0,0.9 0.09,1.44 0.36,1.8 0.27,0.36 0.9,0.63 1.98,0.81l0 0 -9.38 0 0 0c0.99,-0.18 1.71,-0.54 1.98,-0.81 0.28,-0.36 0.46,-0.99 0.46,-1.98l0 -17.5c0,-0.63 -0.09,-1.08 -0.18,-1.26 -0.19,-0.18 -0.55,-0.46 -1.18,-0.73l-1.08 -0.45 0 0 6.95 -0.72 0 4.6 0.09 0z"/>
     <path class="fil0" d="M447.51 195.62c-0.36,-0.46 -0.72,-0.82 -1.17,-1.09 -0.45,-0.18 -0.9,-0.36 -1.54,-0.54l0 0 10.38 0 0 0c-0.91,0.18 -1.54,0.45 -1.9,0.72 -0.36,0.27 -0.54,0.73 -0.45,1.45 0.09,0.63 0.27,1.53 0.63,2.79l4.24 13.35 0 0 4.42 -13.35c0.36,-1.17 0.63,-2.16 0.63,-2.79 0.09,-0.63 -0.09,-1.08 -0.45,-1.45 -0.36,-0.27 -0.99,-0.54 -1.89,-0.72l0 0 9.92 0 0 0c-0.91,0.18 -1.54,0.45 -1.9,0.72 -0.36,0.27 -0.54,0.73 -0.54,1.45 0,0.63 0.27,1.53 0.72,2.79l4.51 13.35 0 0 4.15 -13.08c0.45,-1.26 0.63,-2.34 0.72,-2.97 0,-0.72 -0.18,-1.17 -0.54,-1.54 -0.36,-0.27 -0.99,-0.54 -1.89,-0.72l0 0 6.49 0 0 0c-0.54,0.09 -1.08,0.36 -1.53,0.63 -0.45,0.27 -0.81,0.82 -1.26,1.54 -0.46,0.72 -0.82,1.8 -1.36,3.15l-6.49 17.86 -0.81 0 -7.4 -20.65 0.45 0 -7.75 20.65 -0.81 0 -6.68 -19.39c-0.27,-0.9 -0.54,-1.62 -0.9,-2.16z"/>
     <path class="fil0" d="M533.73 199.49c0.81,-1.8 2.07,-3.15 3.61,-4.23 1.62,-1.09 3.51,-1.54 5.77,-1.54 1.89,0 3.52,0.45 4.87,1.26 1.35,0.82 2.43,1.9 3.15,3.25 0.73,1.35 1.09,2.89 1.09,4.6 0,0.36 0,0.72 -0.09,0.99l-16.51 0 0 0 12.36 -0.18 -0.27 0.09c0,-0.27 0.09,-0.54 0.09,-0.9 0,-0.36 0,-0.63 0,-0.99 0,-1.35 -0.18,-2.62 -0.45,-3.79 -0.36,-1.26 -0.81,-2.25 -1.54,-2.97 -0.72,-0.82 -1.62,-1.18 -2.79,-1.18 -1.99,0 -3.52,0.9 -4.51,2.71 -0.99,1.8 -1.53,4.15 -1.53,7.21 0,2.35 0.36,4.42 1.08,6.32 0.72,1.89 1.8,3.33 3.06,4.42 1.36,1.08 2.89,1.62 4.6,1.62 1.54,0 2.8,-0.27 3.7,-0.72 0.9,-0.45 1.71,-1.08 2.35,-1.81l0 0c-0.64,1.18 -1.72,2.17 -3.16,2.89 -1.44,0.72 -3.16,1.08 -5.05,1.08 -2.17,0 -4.15,-0.54 -5.86,-1.53 -1.72,-1.08 -2.98,-2.53 -3.97,-4.33 -0.99,-1.8 -1.44,-3.88 -1.44,-6.22 0.18,-2.26 0.63,-4.24 1.44,-6.05z"/>
     <path class="fil0" d="M608.22 216.09c-1.26,-0.99 -1.89,-2.35 -1.89,-4.15 0,-1.08 0.27,-2.07 0.9,-2.98 0.63,-0.9 1.62,-1.62 2.98,-2.25 1.35,-0.63 3.15,-1.17 5.41,-1.71l5.32 -1.18 0 0.09 -2.71 0.63c-1.89,0.46 -3.42,0.91 -4.42,1.54 -1.08,0.63 -1.8,1.35 -2.16,2.16 -0.36,0.81 -0.63,1.81 -0.63,2.89 0,1.62 0.45,2.79 1.35,3.7 0.9,0.9 1.99,1.26 3.25,1.26 0.99,0 1.89,-0.18 2.61,-0.54 0.73,-0.36 1.36,-0.9 1.81,-1.72l0 -12.89c0,-2.44 -0.54,-4.24 -1.72,-5.23 -1.08,-1.09 -2.61,-1.63 -4.51,-1.63 -1.17,0 -2.25,0.18 -3.24,0.63 -0.99,0.37 -1.81,0.91 -2.44,1.63 -0.63,0.72 -0.9,1.44 -0.9,2.34 0,-0.72 0.27,-1.26 0.72,-1.71 0.45,-0.45 0.9,-0.63 1.45,-0.63 0.63,0 1.17,0.18 1.62,0.63 0.45,0.45 0.72,0.99 0.72,1.71 0,0.63 -0.18,1.18 -0.63,1.63 -0.45,0.45 -0.99,0.63 -1.62,0.63 -0.64,0 -1.09,-0.18 -1.54,-0.63 -0.45,-0.45 -0.63,-1 -0.63,-1.63 0,-0.9 0.36,-1.71 1.08,-2.52 0.73,-0.72 1.72,-1.36 2.98,-1.81 1.26,-0.45 2.71,-0.72 4.42,-0.72 2.52,0 4.69,0.54 6.31,1.63 1.63,1.08 2.53,2.88 2.53,5.41l0 12.8c0,1.09 0.27,1.9 0.72,2.44 0.45,0.54 1.08,0.81 1.89,0.81 0.27,0 0.54,0 0.81,-0.09l0 0c-0.36,0.27 -0.81,0.45 -1.44,0.63 -0.63,0.18 -1.26,0.27 -1.98,0.27 -0.81,0 -1.45,-0.18 -2.08,-0.45 -0.63,-0.27 -1.08,-0.63 -1.53,-1.17 -0.36,-0.54 -0.63,-1.17 -0.81,-1.9 -0.27,0.73 -0.81,1.36 -1.45,1.9 -0.72,0.54 -1.53,0.99 -2.43,1.26 -0.99,0.27 -1.98,0.45 -3.16,0.45 -2.16,0 -3.69,-0.54 -4.96,-1.53z"/>
     <path class="fil0" d="M685.96 199.04c1.36,-1.71 2.53,-3.06 3.52,-3.88 0.99,-0.9 1.9,-1.35 2.8,-1.35 0.72,0 1.26,0.18 1.62,0.54 0.36,0.36 0.54,0.91 0.54,1.45 0,0.36 -0.09,0.63 -0.18,0.9 -0.09,0.27 -0.27,0.54 -0.36,0.63 -0.18,-0.09 -0.54,-0.09 -0.9,-0.18 -0.45,-0.09 -0.9,-0.09 -1.35,-0.09 -1.09,0 -2.17,0.18 -3.16,0.45 -0.99,0.45 -1.8,0.9 -2.53,1.53l0 15.34c0,0.63 0.09,1.17 0.18,1.53 0.1,0.36 0.37,0.63 0.73,0.81 0.36,0.18 0.99,0.36 1.71,0.54l0 0 -9.65 0 0 0c1.08,-0.18 1.8,-0.45 2.07,-0.81 0.28,-0.36 0.46,-0.9 0.46,-1.8l0 -17.68c0,-0.63 -0.09,-1.08 -0.18,-1.26 -0.19,-0.18 -0.55,-0.45 -1.18,-0.73l-1.08 -0.45 0 0 6.95 -0.72 -0.01 5.23z"/>
     <g>
      <path class="fil0" d="M392.13 180.83l-14.88 9.19 0 18.4 14.88 9.2 14.89 -9.2 0 -18.4 -14.89 -9.19zm12 25.7l-12 7.39 -11.99 -7.39 0 -14.79 11.99 -7.4 12 7.4 0 14.79z"/>
      <path class="fil0" d="M393.22 196.97l6.49 -5.5 -7.67 -4.96 -10.1 6.4 0 9.74 4.96 -4.15 10.65 10.19 5.14 -3.24 -9.47 -8.48zm-5.6 -5.14l6.95 0 -3.79 3.06 -3.16 -3.06z"/>
     </g>
    </g>
   </g>
  </g>
 </g>
</svg>
